# xmcd CD database file
#
# Track frame offsets:
#	150
#	18505
#	38844
#	56291
#	68097
#	85937
#	106102
#	107837
#	126475
#	136672
#	153437
#	157300
#	165037
#	175966
#	191757
#	195455
#	214612
#	226090
#	252732
#	287615
#
# Disc length: 4107 seconds
#
# Revision: 0
# Processed by: cddbd v1.5PL3 Copyright (c) Steve Scherf et al.
# Submitted via: CDex 1.51
#
DISCID=0e100914
DTITLE=Lutz Berger - Ich tu was für mich - Ziele setzen, Ziele erreichen
DYEAR=1900
DGENRE=New Age
TTITLE0=Von Träumen und Wünschen
TTITLE1=Nullpunkt setzen
TTITLE2=Luftschlösser bauen
TTITLE3=Grenzenlos
TTITLE4=Wege zum Ziel
TTITLE5=Ihr persönlicher Stiel
TTITLE6=Intro and Angst konfrontieren
TTITLE7=Intro and Angs konfrontieren II
TTITLE8=Jetzt ist der Augenblick der Macht
TTITLE9=Von Widerständen und Zweifeln
TTITLE10=Was ist Erfolg?
TTITLE11=Standortbestimmung
TTITLE12=Der Wert des Durchhaltens
TTITLE13=Erfolgreich SEIN
TTITLE14=Hand aufs Herz, Fremder
TTITLE15=Im Schilderwald
TTITLE16=Lieben Sie Zeitreisen?
TTITLE17=Das Märchen von den zwei Märchen
TTITLE18=Die Einladung....
TTITLE19=Ziele (sind wie Segel...)
EXTD=
EXTT0=
EXTT1=
EXTT2=
EXTT3=
EXTT4=
EXTT5=
EXTT6=
EXTT7=
EXTT8=
EXTT9=
EXTT10=
EXTT11=
EXTT12=
EXTT13=
EXTT14=
EXTT15=
EXTT16=
EXTT17=
EXTT18=
EXTT19=
PLAYORDER=
